<svg xmlns="http://www.w3.org/2000/svg" width="500" zoomAndPan="magnify" viewBox="0 0 375 374.999991" height="500"
     preserveAspectRatio="xMidYMid meet" version="1.0"><defs><g/><clipPath id="64bb4637e0"><path d="M 63 46.027344 L 249 46.027344 L 249 308 L 63 308 Z M 63 46.027344 " clip-rule="nonzero"/></clipPath></defs><g fill="#000000" fill-opacity="1"><g transform="translate(47.544996, 289.790701)"><g><path d="M 9.257812 -2.960938 C 9.257812 -1.109375 10.371094 0 12.222656 0 L 31.480469 0 C 33.515625 0 34.441406 -1.109375 34.441406 -2.960938 L 34.441406 -49.625 L 56.660156 -49.625 C 74.066406 -49.625 83.328125 -59.070312 83.328125 -76.289062 L 83.328125 -121.472656 C 83.328125 -138.878906 74.066406 -148.136719 56.660156 -148.136719 L 12.222656 -148.136719 C 10.371094 -148.136719 9.257812 -147.023438 9.257812 -145.171875 Z M 34.441406 -74.066406 L 34.441406 -123.695312 L 50.738281 -123.695312 C 55.734375 -123.695312 58.144531 -121.101562 58.144531 -116.285156 L 58.144531 -81.476562 C 58.144531 -76.84375 55.734375 -74.066406 50.738281 -74.066406 Z M 34.441406 -74.066406 "/></g></g></g><path stroke-linecap="butt" transform="matrix(0.75, -0.000000000000000186, 0.000000000000000186, 0.75, 15.455883, 315.46167)" fill="none" stroke-linejoin="miter" d="M 0.00153099 8.999024 L 458.782811 8.999024 " stroke="#f13232" stroke-width="18" stroke-opacity="1" stroke-miterlimit="4"/><g clip-path="url(#64bb4637e0)"><path fill="#f13232" d="M 139.601562 104.875 C 140.886719 107.410156 141.695312 110.035156 143.613281 112.183594 C 144.117188 112.75 144.730469 113.816406 145.246094 115.070312 C 145.539062 114.097656 145.953125 113.238281 146.433594 112.480469 C 146.355469 112.320312 146.320312 112.175781 146.320312 112.042969 C 146.425781 107.847656 149.050781 100.820312 152.300781 99.558594 C 155.554688 98.300781 160.167969 97.25 162.375 97.144531 C 163.726562 97.082031 165.675781 96.421875 166.976562 95.925781 C 157.601562 93.882812 148.335938 91.867188 141.085938 90.289062 C 140.898438 90.539062 140.699219 90.785156 140.550781 91.039062 C 139.894531 92.152344 139.394531 93.289062 138.65625 94.34375 C 138.039062 95.230469 137.402344 96.28125 136.707031 97.289062 C 137.5 99.875 138.363281 102.433594 139.601562 104.875 Z M 196.050781 108.898438 C 197.9375 110.050781 198.988281 112.042969 199.40625 113.199219 C 199.734375 114.097656 202.546875 116.527344 203.277344 120.339844 C 205.089844 116.066406 207.480469 114.015625 206.867188 112.367188 C 206.027344 110.117188 201.820312 106.886719 201.820312 104.492188 C 201.820312 104.261719 201.882812 103.933594 201.992188 103.550781 C 199.539062 103.015625 196.621094 102.378906 193.382812 101.675781 C 193.324219 105.597656 192.507812 106.730469 196.050781 108.898438 Z M 66.785156 66.625 C 67.144531 66.578125 65.917969 66.335938 85.613281 70.96875 C 87.792969 64.148438 90.570312 60.601562 91.878906 58.621094 C 94.125 55.203125 96.984375 51.992188 100.417969 49.742188 C 104.195312 47.265625 108.5625 46.066406 112.816406 47.386719 C 116.148438 48.417969 117.621094 48.75 119.496094 49.914062 C 122.617188 51.851562 124.832031 54.910156 126.328125 58.25 C 129.195312 64.648438 129.675781 72.453125 128.789062 79.488281 C 129.113281 79.503906 129.644531 79.714844 130.023438 79.992188 C 130.347656 79.46875 130.820312 79.433594 131.3125 79.835938 C 132.015625 79.324219 133.347656 80.183594 133.917969 80.765625 C 134.238281 80.378906 134.851562 80.507812 135.234375 80.785156 C 135.578125 81.03125 135.941406 81.425781 136.277344 81.875 C 136.242188 80.941406 136.363281 79.714844 137.289062 79.746094 C 138.101562 79.769531 138.371094 80.867188 138.769531 81.40625 C 139.585938 82.511719 141.152344 82.539062 141.253906 84.714844 L 175.582031 92.730469 C 177.441406 92.199219 179.238281 91.867188 179.671875 91.246094 C 180.226562 90.457031 180.464844 88.398438 180.304688 87.289062 C 180.285156 87.148438 180.226562 86.941406 180.144531 86.679688 C 179.996094 86.921875 179.851562 87.160156 179.726562 87.414062 C 179.753906 86.199219 179.308594 85.101562 179.015625 83.964844 C 178.945312 83.824219 178.875 83.675781 178.804688 83.523438 C 178.785156 83.859375 178.9375 84.164062 179.042969 84.46875 C 178.140625 83.617188 177.578125 82.050781 177.488281 80.855469 C 177.378906 81.214844 177.28125 81.597656 177.308594 81.976562 C 177.019531 80.203125 176.359375 79.652344 176.824219 75.808594 C 176.65625 76.03125 176.476562 76.40625 176.480469 76.691406 C 176.410156 75.699219 176.585938 74.632812 176.773438 73.664062 C 176.882812 73.117188 176.945312 72.464844 177.179688 71.953125 C 177.316406 71.652344 177.5625 71.398438 177.695312 71.109375 C 177.402344 71.460938 176.875 71.550781 176.621094 71.953125 C 176.800781 70.679688 177.800781 69.117188 178.792969 68.335938 C 178.40625 68.285156 177.742188 68.441406 177.480469 68.664062 C 177.941406 68.027344 178.546875 67.507812 179.28125 67.203125 C 179.707031 67.027344 180.359375 66.769531 180.929688 66.742188 C 181.117188 65.789062 181.773438 64.949219 182.535156 64.308594 C 183.316406 63.652344 184.082031 63.050781 185.011719 62.636719 C 185.964844 62.210938 186.785156 61.546875 187.378906 60.6875 C 187.449219 61.433594 186.398438 62.566406 185.753906 62.855469 C 186.75 62.929688 187.476562 61.984375 187.972656 61.269531 C 187.878906 61.835938 187.636719 62.382812 187.335938 62.894531 C 192.636719 60.84375 193.96875 62.058594 195.640625 60.269531 C 195.515625 60.949219 194.488281 61.332031 194.238281 61.914062 C 194.796875 61.957031 195.28125 62.023438 195.855469 61.972656 C 196.628906 61.90625 197.34375 61.902344 198.082031 61 C 197.839844 61.996094 196.207031 62.441406 195.234375 62.628906 C 196.457031 62.714844 198.453125 62.421875 198.824219 61.285156 C 198.871094 61.683594 198.328125 62.230469 198.066406 62.46875 C 197.535156 62.945312 196.816406 63.222656 196.113281 63.398438 C 197.253906 63.289062 198.285156 62.929688 198.96875 61.929688 C 198.800781 62.363281 198.921875 62.851562 198.328125 63.632812 C 198.988281 63.121094 199.753906 62.039062 199.695312 61.199219 C 199.878906 61.601562 199.773438 62.25 199.726562 62.667969 C 199.6875 63.007812 199.628906 63.484375 199.417969 63.773438 C 200.234375 62.882812 200.527344 61.300781 200.371094 60.777344 C 200.609375 61.214844 200.710938 61.722656 200.730469 62.238281 C 200.941406 61.878906 201.179688 61.519531 201.402344 61.113281 C 201.175781 61.769531 201.191406 62.730469 201.359375 63.402344 C 201.429688 63.6875 201.613281 64.179688 201.605469 64.484375 C 201.644531 63.726562 201.972656 62.820312 201.90625 62.035156 C 202.683594 63.015625 202.78125 65.074219 202.210938 66.167969 C 202.902344 65.441406 203.339844 64.488281 203.609375 63.550781 C 203.785156 64.691406 203.628906 65.8125 203.097656 66.671875 C 203.796875 66.097656 204.1875 65.363281 204.441406 64.476562 C 204.335938 65.53125 204.457031 66.699219 203.769531 67.59375 C 204.304688 67.132812 204.632812 66.699219 204.980469 66.089844 C 204.613281 67.664062 203.875 68.472656 202.644531 69.402344 C 203.429688 71.144531 203.429688 72.957031 203.828125 73.824219 C 205.027344 76.46875 203.90625 76.101562 203.90625 77.074219 C 203.90625 77.269531 203.746094 77.496094 203.546875 77.75 C 203.609375 77.988281 203.746094 78.179688 204.09375 78.238281 C 203.921875 78.289062 203.722656 78.28125 203.578125 78.1875 C 203.59375 78.300781 203.710938 78.4375 203.769531 78.460938 C 203.527344 78.476562 203.308594 78.429688 203.113281 78.335938 C 202.992188 78.527344 202.886719 78.726562 202.828125 78.9375 C 203.101562 79.601562 203.636719 80.257812 204.027344 80.789062 C 204.277344 81.128906 204.503906 81.34375 204.496094 81.792969 C 204.484375 82.378906 203.992188 82.875 203.476562 83.148438 C 203.421875 83.964844 203.074219 84.164062 203.011719 84.710938 C 202.917969 85.523438 203.636719 85.921875 202.644531 86.863281 C 202.855469 87.265625 202.804688 87.886719 202.558594 88.316406 C 202.242188 88.871094 202.085938 89.425781 202.085938 89.425781 C 202.085938 89.425781 202.320312 90.851562 202.003906 91.566406 C 201.6875 92.277344 201.292969 92.910156 200.105469 93.148438 C 198.914062 93.386719 198.042969 93.625 197.332031 94.097656 C 196.824219 94.4375 195.679688 95.855469 194.917969 97.246094 L 203.820312 99.324219 C 204.214844 98.714844 204.542969 98.480469 204.96875 98.195312 C 205.597656 97.777344 206.121094 98.195312 207.171875 97.882812 C 208.21875 97.566406 209.375 97.988281 209.375 97.988281 C 209.375 97.988281 210.214844 97.144531 210.949219 97.25 C 211.371094 97.3125 211.617188 97.753906 211.691406 98.316406 C 214.378906 92.101562 219.414062 86.929688 225.921875 85.308594 C 230.058594 84.273438 233.089844 84.972656 236.652344 86.195312 C 248.710938 90.332031 252.671875 107.257812 245.097656 119.65625 C 241.125 126.15625 234.492188 130.289062 227.492188 129.773438 C 226.792969 129.722656 224.597656 129.445312 223.429688 129.183594 C 218.765625 128.132812 215.15625 125.203125 212.78125 121.289062 C 212.605469 122.972656 212.410156 125.046875 212.3125 126.835938 C 212.101562 130.613281 209.164062 137.222656 207.066406 140.371094 C 204.96875 143.519531 205.597656 144.566406 203.8125 144.984375 C 202.363281 145.328125 200.355469 145.253906 198.472656 144.140625 C 197.546875 147.253906 196.15625 149.710938 195.527344 151.28125 C 194.6875 153.378906 195.210938 154.21875 196.050781 157.050781 C 196.890625 159.882812 197.308594 161.980469 196.890625 164.394531 C 196.59375 166.085938 197.175781 166.28125 197.40625 166.863281 C 198.621094 167.214844 198.800781 168.660156 198.992188 169.949219 C 199.261719 171.75 200.277344 173.40625 200.125 175.21875 C 200.703125 176.019531 201.3125 176.8125 201.925781 177.613281 C 203.605469 179.816406 206.648438 184.015625 208.746094 186.847656 C 210.84375 189.679688 211.050781 190.832031 211.367188 191.464844 C 211.515625 191.753906 211.496094 192.347656 211.242188 193.195312 C 212.320312 195.496094 213.585938 198.914062 214.09375 202.058594 C 214.726562 205.941406 214.199219 208.773438 214.199219 208.773438 C 214.199219 208.773438 216.390625 212.683594 215.203125 220.445312 C 215.621094 222.070312 216.113281 223.667969 216.195312 224.613281 C 216.296875 225.875 215.878906 228.8125 216.089844 229.652344 C 216.296875 230.488281 216.402344 231.855469 215.457031 233.636719 C 214.515625 235.421875 213.253906 237.203125 213.152344 238.359375 C 213.046875 239.511719 213.886719 246.855469 213.464844 253.886719 C 213.046875 260.914062 212.730469 264.691406 212.730469 268.992188 C 212.730469 273.292969 212.941406 279.695312 213.359375 280.53125 C 213.640625 281.09375 213.875 281.746094 214.375 282.371094 C 214.910156 281.46875 216.316406 282.066406 217.773438 283.132812 C 218.804688 283.722656 219.425781 283.796875 220.457031 284.210938 C 223.785156 285.546875 225.277344 286.664062 226.75 287.328125 C 227.589844 287.707031 228.628906 287.789062 229.09375 288.648438 C 230.707031 289.148438 232.414062 289.253906 233.847656 290.292969 C 234.6875 290.902344 235.289062 291.488281 235.398438 292.546875 C 235.457031 293.113281 235.394531 293.746094 235.179688 294.300781 C 235.234375 294.636719 235.113281 295.136719 235.097656 295.449219 C 235.074219 296.007812 235.152344 296.992188 234.695312 297.414062 C 234.289062 297.789062 233.347656 297.894531 232.832031 297.878906 C 230.917969 297.824219 228.914062 297.613281 227.011719 297.328125 C 224.582031 296.964844 222.125 296.824219 219.722656 296.296875 C 215.527344 295.378906 211.261719 297.015625 207.039062 296.683594 C 205.492188 296.566406 203.71875 296.371094 202.25 295.828125 C 200.273438 295.101562 200.035156 294.769531 199.8125 292.558594 C 199.761719 292.0625 199.769531 291.566406 199.992188 291.242188 C 199.390625 289.523438 199.464844 288.097656 199.996094 286.679688 C 200.1875 286.164062 200.679688 285.652344 201.03125 285.132812 C 200.5 283.988281 200.558594 283.925781 200.558594 282.578125 C 200.558594 281.898438 200.375 281.34375 200.996094 280.984375 C 201.300781 280.804688 201.628906 280.777344 201.9375 280.855469 C 201.679688 273.925781 198.683594 265.917969 197.9375 260.707031 C 197.730469 259.234375 195.421875 257.871094 194.894531 252.207031 C 194.371094 246.542969 196.46875 239.410156 198.148438 235.527344 C 199.046875 233.449219 199.1875 230.773438 198.664062 228.136719 C 197.535156 226.300781 195.800781 223.132812 195.527344 223.039062 C 195.210938 222.9375 191.644531 218.53125 188.285156 212.96875 C 186.839844 210.574219 185.957031 208.039062 185.421875 205.933594 C 185.121094 205.90625 184.847656 205.8125 184.507812 205.625 C 183.566406 205.101562 183.25 204.578125 183.355469 203.109375 C 183.386719 202.691406 183.289062 202.054688 183.132812 201.359375 C 182.476562 204.195312 181.667969 207.054688 181.363281 208.355469 C 180.941406 210.136719 181.257812 213.492188 180.523438 216.957031 C 179.789062 220.417969 179.367188 223.460938 177.691406 226.714844 C 176.011719 229.964844 176.117188 229.652344 175.488281 232.378906 C 174.859375 235.105469 173.492188 237.625 172.023438 239.617188 C 170.558594 241.609375 170.136719 241.085938 169.507812 242.871094 C 168.878906 244.652344 167.304688 250.949219 166.046875 254.726562 C 164.785156 258.503906 162.582031 261.753906 161.21875 265.320312 C 159.9375 268.667969 156.519531 281.960938 156.613281 288.347656 C 157.460938 288.5 158.203125 288.527344 158.199219 289.746094 C 158.195312 290.363281 158.203125 291.074219 158.324219 291.75 C 159.5625 292.996094 160.589844 293.3125 161.234375 294.425781 C 161.5 294.546875 161.765625 294.671875 162.027344 294.796875 C 163.152344 295.339844 165.160156 295.695312 165.316406 297.226562 C 165.765625 297.371094 166.210938 297.519531 166.648438 297.675781 C 168.667969 298.398438 169.949219 299.960938 170.148438 302.097656 C 170.210938 302.738281 170.136719 303.257812 169.917969 303.6875 C 170.4375 304.050781 170.261719 305.03125 170.152344 305.636719 C 169.984375 306.539062 169.777344 307.039062 168.898438 307.34375 C 166.089844 308.308594 161.160156 307.929688 158.15625 307.453125 C 156.714844 307.316406 153.707031 306.933594 152.222656 306.449219 C 151.082031 306.082031 149.332031 305.777344 148.429688 304.960938 C 148.050781 304.617188 147.671875 304.082031 147.34375 303.539062 C 146.859375 303.273438 146.355469 303.042969 145.78125 302.929688 C 144.671875 302.714844 142.164062 302.738281 141.621094 301.601562 C 141.359375 301.050781 141.03125 298.710938 141.929688 298.457031 C 140.660156 294.269531 143.199219 293.121094 143.882812 290.839844 C 143.628906 289.980469 143.496094 289.4375 143.855469 288.433594 C 144.03125 287.949219 144.070312 287.652344 144.621094 287.554688 C 144.828125 287.515625 145.242188 287.542969 145.539062 287.640625 C 145.851562 286.394531 146.082031 285.398438 146.113281 285.042969 C 146.21875 283.785156 146.847656 277.699219 146.53125 273.292969 C 146.21875 268.886719 147.054688 260.808594 146.742188 258.710938 C 146.425781 256.613281 145.378906 251.996094 148.105469 246.960938 C 150.832031 241.925781 156.707031 234.894531 157.441406 233.21875 C 158.175781 231.539062 158.910156 230.910156 159.015625 228.707031 C 159.121094 226.503906 159.539062 223.144531 158.804688 218.742188 C 158.070312 214.335938 158.703125 207.515625 158.804688 205.625 C 158.894531 204.035156 158.238281 197.242188 159.03125 194.257812 C 157.714844 193.699219 158.132812 191.6875 158.703125 190.414062 C 158.703125 190.414062 158.28125 188.316406 158.070312 185.0625 C 157.863281 181.8125 159.015625 179.710938 158.910156 178.140625 C 158.804688 176.566406 159.015625 171.214844 158.910156 169.222656 C 158.804688 167.226562 159.226562 166.703125 159.960938 165.652344 C 160.242188 165.25 160.589844 164.707031 161.125 164.386719 C 161.464844 163.5 161.742188 162.722656 161.742188 162.191406 C 161.742188 160.511719 160.695312 157.890625 160.800781 154.953125 C 160.90625 152.015625 161.742188 150.863281 161.011719 148.449219 C 160.273438 146.035156 158.597656 141.839844 157.339844 138.167969 C 156.316406 135.191406 155.917969 131.25 156.195312 127.40625 C 153.75 131.21875 151.113281 131.683594 147.054688 134.707031 C 146.074219 135.433594 145.507812 135.636719 145.207031 135.445312 C 143.984375 136.511719 142.375 137.101562 140.78125 136.792969 C 137.671875 136.191406 135.355469 133.722656 134.519531 130.71875 C 133.722656 127.863281 132.789062 125.054688 132.113281 122.171875 C 130.640625 115.84375 131.644531 110.058594 130.359375 104.675781 C 130.195312 103.988281 130.4375 104.414062 128.855469 101.648438 C 127.953125 100.070312 128.761719 98.355469 128.726562 96.613281 C 127.652344 95.042969 126.445312 93.71875 125.601562 92 C 124.066406 95.914062 122.039062 99.667969 119.539062 102.894531 C 115.75 107.777344 110.324219 112.097656 104.179688 112.25 C 102.839844 112.28125 101.992188 112.113281 100.472656 111.898438 C 98.402344 111.609375 97.886719 111.554688 97.144531 111.378906 C 88.929688 109.425781 85.007812 99.984375 84.058594 91.472656 C 83.257812 87.230469 83.285156 82.804688 83.878906 78.578125 C 81.898438 78.152344 67.292969 75 65.414062 74.59375 C 62.792969 74.027344 64.09375 66.976562 66.785156 66.625 " fill-opacity="1" fill-rule="nonzero"/></g><g fill="#000000" fill-opacity="1"><g transform="translate(238.535399, 289.790701)"><g><path d="M 8.519531 -148.136719 C 6.667969 -148.136719 5.554688 -147.023438 5.554688 -145.171875 L 5.554688 -126.65625 C 5.554688 -124.804688 6.667969 -123.695312 8.519531 -123.695312 L 29.996094 -123.695312 L 29.996094 -2.960938 C 29.996094 -0.925781 31.109375 0 32.960938 0 L 52.21875 0 C 54.253906 0 55.179688 -0.925781 55.179688 -2.960938 L 55.179688 -123.695312 L 76.660156 -123.695312 C 78.695312 -123.695312 79.625 -124.804688 79.625 -126.65625 L 79.625 -145.171875 C 79.625 -147.023438 78.695312 -148.136719 76.660156 -148.136719 Z M 8.519531 -148.136719 "/></g></g></g></svg>