<svg xmlns="http://www.w3.org/2000/svg" width="500" zoomAndPan="magnify" viewBox="0 0 375 374.999991" height="500"
     preserveAspectRatio="xMidYMid meet" version="1.0"><defs><g/><clipPath id="dddb7af112"><path d="M 76 60.109375 L 243 60.109375 L 243 296 L 76 296 Z M 76 60.109375 " clip-rule="nonzero"/></clipPath></defs><g fill="#ffffff" fill-opacity="1"><g transform="translate(61.479159, 279.606454)"><g><path d="M 8.335938 -2.667969 C 8.335938 -1 9.335938 0 11.003906 0 L 28.34375 0 C 30.179688 0 31.011719 -1 31.011719 -2.667969 L 31.011719 -44.683594 L 51.019531 -44.683594 C 66.695312 -44.683594 75.03125 -53.1875 75.03125 -68.695312 L 75.03125 -109.378906 C 75.03125 -125.050781 66.695312 -133.386719 51.019531 -133.386719 L 11.003906 -133.386719 C 9.335938 -133.386719 8.335938 -132.386719 8.335938 -130.71875 Z M 31.011719 -66.695312 L 31.011719 -111.378906 L 45.683594 -111.378906 C 50.1875 -111.378906 52.355469 -109.042969 52.355469 -104.710938 L 52.355469 -73.363281 C 52.355469 -69.195312 50.1875 -66.695312 45.683594 -66.695312 Z M 31.011719 -66.695312 "/></g></g></g><path stroke-linecap="butt" transform="matrix(0.75, -0.000000000000000558, 0.000000000000000558, 0.75, 32.584895, 302.79959)" fill="none" stroke-linejoin="miter" d="M 0.00139 8.001589 L 413.105584 8.001589 " stroke="#f13232" stroke-width="16" stroke-opacity="1" stroke-miterlimit="4"/><g clip-path="url(#dddb7af112)"><path fill="#f13232" d="M 144.371094 113.097656 C 145.527344 115.382812 146.257812 117.746094 147.984375 119.679688 C 148.4375 120.191406 148.988281 121.152344 149.453125 122.28125 C 149.71875 121.402344 150.09375 120.628906 150.519531 119.949219 C 150.453125 119.804688 150.417969 119.675781 150.421875 119.554688 C 150.515625 115.777344 152.878906 109.445312 155.808594 108.3125 C 158.734375 107.179688 162.890625 106.234375 164.875 106.140625 C 166.09375 106.082031 167.847656 105.488281 169.019531 105.039062 C 160.582031 103.203125 152.234375 101.386719 145.707031 99.964844 C 145.539062 100.191406 145.359375 100.414062 145.222656 100.640625 C 144.636719 101.644531 144.183594 102.664062 143.519531 103.617188 C 142.964844 104.414062 142.390625 105.363281 141.761719 106.269531 C 142.480469 108.597656 143.257812 110.898438 144.371094 113.097656 Z M 195.199219 116.722656 C 196.902344 117.761719 197.84375 119.554688 198.222656 120.59375 C 198.515625 121.402344 201.050781 123.59375 201.707031 127.027344 C 203.339844 123.179688 205.492188 121.332031 204.9375 119.84375 C 204.183594 117.820312 200.394531 114.914062 200.394531 112.753906 C 200.394531 112.546875 200.453125 112.253906 200.550781 111.90625 C 198.339844 111.425781 195.714844 110.851562 192.796875 110.21875 C 192.746094 113.75 192.007812 114.769531 195.199219 116.722656 Z M 78.804688 78.65625 C 79.125 78.613281 78.023438 78.394531 95.757812 82.570312 C 97.71875 76.425781 100.222656 73.234375 101.398438 71.449219 C 103.421875 68.375 105.996094 65.480469 109.089844 63.453125 C 112.488281 61.226562 116.421875 60.144531 120.253906 61.335938 C 123.25 62.265625 124.578125 62.5625 126.269531 63.609375 C 129.078125 65.355469 131.074219 68.109375 132.421875 71.117188 C 135 76.878906 135.433594 83.90625 134.632812 90.238281 C 134.925781 90.253906 135.40625 90.445312 135.746094 90.695312 C 136.039062 90.222656 136.464844 90.191406 136.90625 90.554688 C 137.542969 90.089844 138.742188 90.867188 139.253906 91.390625 C 139.539062 91.042969 140.09375 91.15625 140.441406 91.40625 C 140.746094 91.628906 141.074219 91.984375 141.378906 92.390625 C 141.347656 91.546875 141.453125 90.445312 142.289062 90.472656 C 143.019531 90.496094 143.261719 91.480469 143.621094 91.96875 C 144.359375 92.964844 145.769531 92.984375 145.859375 94.945312 L 176.769531 102.164062 C 178.445312 101.683594 180.0625 101.386719 180.453125 100.828125 C 180.953125 100.117188 181.164062 98.261719 181.023438 97.265625 C 181.003906 97.136719 180.953125 96.949219 180.875 96.714844 C 180.746094 96.933594 180.613281 97.148438 180.5 97.375 C 180.527344 96.285156 180.125 95.292969 179.863281 94.273438 C 179.796875 94.144531 179.734375 94.011719 179.671875 93.875 C 179.652344 94.175781 179.792969 94.453125 179.886719 94.722656 C 179.074219 93.957031 178.566406 92.546875 178.488281 91.472656 C 178.386719 91.792969 178.296875 92.136719 178.324219 92.480469 C 178.066406 90.882812 177.46875 90.390625 177.886719 86.925781 C 177.738281 87.128906 177.574219 87.464844 177.578125 87.722656 C 177.515625 86.828125 177.671875 85.867188 177.84375 84.996094 C 177.941406 84.503906 177.996094 83.917969 178.207031 83.453125 C 178.332031 83.183594 178.554688 82.957031 178.675781 82.695312 C 178.410156 83.011719 177.933594 83.09375 177.707031 83.453125 C 177.867188 82.308594 178.765625 80.902344 179.660156 80.199219 C 179.3125 80.152344 178.714844 80.292969 178.480469 80.492188 C 178.894531 79.921875 179.4375 79.453125 180.101562 79.179688 C 180.480469 79.019531 181.070312 78.789062 181.585938 78.761719 C 181.753906 77.90625 182.34375 77.148438 183.03125 76.570312 C 183.730469 75.980469 184.421875 75.4375 185.261719 75.066406 C 186.117188 74.683594 186.855469 74.085938 187.390625 73.308594 C 187.457031 73.984375 186.507812 75.003906 185.929688 75.261719 C 186.824219 75.328125 187.480469 74.480469 187.925781 73.832031 C 187.839844 74.34375 187.625 74.835938 187.351562 75.296875 C 192.125 73.453125 193.324219 74.546875 194.832031 72.933594 C 194.71875 73.546875 193.792969 73.890625 193.570312 74.417969 C 194.070312 74.453125 194.507812 74.515625 195.027344 74.46875 C 195.722656 74.40625 196.363281 74.40625 197.03125 73.59375 C 196.8125 74.492188 195.339844 74.890625 194.464844 75.0625 C 195.566406 75.136719 197.363281 74.875 197.699219 73.847656 C 197.738281 74.207031 197.253906 74.703125 197.015625 74.914062 C 196.539062 75.34375 195.890625 75.59375 195.253906 75.753906 C 196.28125 75.65625 197.210938 75.328125 197.828125 74.429688 C 197.679688 74.820312 197.785156 75.261719 197.253906 75.960938 C 197.84375 75.5 198.535156 74.527344 198.480469 73.773438 C 198.648438 74.132812 198.550781 74.71875 198.507812 75.09375 C 198.472656 75.402344 198.421875 75.832031 198.230469 76.089844 C 198.96875 75.289062 199.230469 73.863281 199.089844 73.390625 C 199.304688 73.785156 199.398438 74.242188 199.414062 74.707031 C 199.601562 74.382812 199.816406 74.058594 200.019531 73.695312 C 199.816406 74.285156 199.828125 75.152344 199.980469 75.753906 C 200.042969 76.011719 200.210938 76.457031 200.203125 76.730469 C 200.238281 76.050781 200.535156 75.234375 200.472656 74.523438 C 201.171875 75.40625 201.261719 77.261719 200.746094 78.246094 C 201.371094 77.589844 201.761719 76.734375 202.007812 75.890625 C 202.164062 76.917969 202.023438 77.925781 201.546875 78.699219 C 202.175781 78.183594 202.527344 77.519531 202.753906 76.722656 C 202.660156 77.671875 202.769531 78.726562 202.152344 79.53125 C 202.628906 79.117188 202.929688 78.722656 203.238281 78.175781 C 202.910156 79.59375 202.246094 80.320312 201.136719 81.160156 C 201.84375 82.726562 201.84375 84.359375 202.203125 85.140625 C 203.28125 87.519531 202.273438 87.191406 202.273438 88.066406 C 202.273438 88.242188 202.128906 88.445312 201.953125 88.675781 C 202.007812 88.890625 202.128906 89.058594 202.445312 89.113281 C 202.289062 89.160156 202.109375 89.152344 201.976562 89.066406 C 201.992188 89.171875 202.097656 89.292969 202.152344 89.316406 C 201.933594 89.328125 201.734375 89.285156 201.558594 89.203125 C 201.449219 89.375 201.355469 89.554688 201.304688 89.746094 C 201.550781 90.34375 202.03125 90.933594 202.382812 91.410156 C 202.609375 91.71875 202.8125 91.914062 202.804688 92.316406 C 202.796875 92.84375 202.351562 93.289062 201.886719 93.535156 C 201.839844 94.273438 201.523438 94.449219 201.46875 94.941406 C 201.382812 95.675781 202.03125 96.03125 201.136719 96.878906 C 201.328125 97.246094 201.28125 97.804688 201.058594 98.191406 C 200.773438 98.691406 200.632812 99.1875 200.632812 99.1875 C 200.632812 99.1875 200.847656 100.472656 200.5625 101.113281 C 200.277344 101.757812 199.917969 102.328125 198.851562 102.539062 C 197.78125 102.753906 196.996094 102.96875 196.351562 103.394531 C 195.898438 103.699219 194.867188 104.976562 194.179688 106.230469 L 202.195312 108.101562 C 202.550781 107.554688 202.847656 107.339844 203.230469 107.085938 C 203.796875 106.707031 204.269531 107.085938 205.214844 106.800781 C 206.15625 106.519531 207.199219 106.898438 207.199219 106.898438 C 207.199219 106.898438 207.953125 106.140625 208.613281 106.234375 C 208.992188 106.289062 209.214844 106.6875 209.285156 107.191406 C 211.703125 101.597656 216.238281 96.941406 222.097656 95.480469 C 225.824219 94.550781 228.550781 95.179688 231.761719 96.277344 C 242.617188 100.003906 246.183594 115.246094 239.363281 126.410156 C 235.789062 132.261719 229.8125 135.984375 223.511719 135.519531 C 222.882812 135.472656 220.90625 135.222656 219.851562 134.988281 C 215.652344 134.042969 212.40625 131.402344 210.265625 127.878906 C 210.105469 129.398438 209.933594 131.261719 209.84375 132.875 C 209.652344 136.277344 207.007812 142.226562 205.121094 145.0625 C 203.230469 147.894531 203.796875 148.839844 202.191406 149.21875 C 200.882812 149.527344 199.078125 149.457031 197.382812 148.453125 C 196.546875 151.261719 195.292969 153.472656 194.726562 154.886719 C 193.972656 156.773438 194.445312 157.53125 195.199219 160.082031 C 195.957031 162.632812 196.332031 164.523438 195.957031 166.695312 C 195.691406 168.214844 196.210938 168.394531 196.421875 168.914062 C 197.515625 169.234375 197.675781 170.535156 197.847656 171.695312 C 198.09375 173.316406 199.003906 174.808594 198.867188 176.441406 C 199.386719 177.164062 199.9375 177.875 200.488281 178.597656 C 202 180.582031 204.742188 184.359375 206.628906 186.910156 C 208.519531 189.460938 208.707031 190.5 208.992188 191.066406 C 209.125 191.332031 209.109375 191.863281 208.878906 192.628906 C 209.847656 194.699219 210.988281 197.777344 211.449219 200.609375 C 212.015625 204.105469 211.542969 206.65625 211.542969 206.65625 C 211.542969 206.65625 213.515625 210.171875 212.445312 217.164062 C 212.820312 218.628906 213.265625 220.066406 213.339844 220.917969 C 213.429688 222.050781 213.054688 224.699219 213.242188 225.453125 C 213.429688 226.210938 213.527344 227.4375 212.675781 229.042969 C 211.824219 230.648438 210.691406 232.253906 210.597656 233.292969 C 210.503906 234.332031 211.257812 240.945312 210.878906 247.277344 C 210.503906 253.605469 210.21875 257.003906 210.21875 260.878906 C 210.21875 264.75 210.410156 270.515625 210.785156 271.269531 C 211.039062 271.773438 211.25 272.363281 211.699219 272.925781 C 212.179688 272.109375 213.449219 272.648438 214.761719 273.609375 C 215.6875 274.144531 216.246094 274.207031 217.175781 274.582031 C 220.171875 275.785156 221.519531 276.789062 222.84375 277.386719 C 223.601562 277.726562 224.535156 277.804688 224.953125 278.578125 C 226.40625 279.027344 227.945312 279.121094 229.234375 280.058594 C 229.992188 280.605469 230.53125 281.132812 230.628906 282.085938 C 230.683594 282.597656 230.625 283.167969 230.433594 283.667969 C 230.484375 283.96875 230.371094 284.417969 230.359375 284.699219 C 230.339844 285.203125 230.410156 286.089844 229.996094 286.472656 C 229.632812 286.808594 228.78125 286.902344 228.320312 286.886719 C 226.597656 286.839844 224.792969 286.652344 223.078125 286.394531 C 220.894531 286.066406 218.679688 285.941406 216.515625 285.464844 C 212.738281 284.636719 208.894531 286.109375 205.09375 285.8125 C 203.703125 285.707031 202.105469 285.53125 200.78125 285.042969 C 199.003906 284.386719 198.785156 284.089844 198.585938 282.097656 C 198.542969 281.652344 198.550781 281.207031 198.75 280.914062 C 198.207031 279.367188 198.273438 278.082031 198.75 276.804688 C 198.925781 276.339844 199.367188 275.878906 199.6875 275.410156 C 199.207031 274.382812 199.261719 274.328125 199.261719 273.113281 C 199.261719 272.496094 199.09375 272 199.65625 271.675781 C 199.929688 271.515625 200.222656 271.492188 200.5 271.558594 C 200.269531 265.320312 197.570312 258.109375 196.902344 253.414062 C 196.710938 252.09375 194.632812 250.863281 194.160156 245.765625 C 193.6875 240.664062 195.578125 234.238281 197.089844 230.742188 C 197.898438 228.875 198.023438 226.464844 197.554688 224.089844 C 196.535156 222.4375 194.976562 219.585938 194.726562 219.5 C 194.445312 219.40625 191.230469 215.441406 188.210938 210.433594 C 186.90625 208.273438 186.113281 205.996094 185.632812 204.097656 C 185.355469 204.074219 185.113281 203.988281 184.808594 203.820312 C 183.957031 203.347656 183.675781 202.875 183.769531 201.554688 C 183.796875 201.179688 183.707031 200.605469 183.570312 199.976562 C 182.976562 202.53125 182.25 205.105469 181.972656 206.277344 C 181.597656 207.882812 181.878906 210.90625 181.21875 214.023438 C 180.558594 217.140625 180.179688 219.878906 178.667969 222.808594 C 177.15625 225.738281 177.25 225.453125 176.683594 227.910156 C 176.117188 230.367188 174.890625 232.632812 173.566406 234.425781 C 172.246094 236.222656 171.867188 235.75 171.300781 237.355469 C 170.730469 238.960938 169.316406 244.628906 168.183594 248.03125 C 167.046875 251.433594 165.0625 254.359375 163.835938 257.574219 C 162.683594 260.585938 159.605469 272.558594 159.691406 278.304688 C 160.453125 278.445312 161.121094 278.46875 161.117188 279.5625 C 161.117188 280.125 161.121094 280.761719 161.230469 281.371094 C 162.347656 282.492188 163.269531 282.777344 163.851562 283.78125 C 164.089844 283.890625 164.328125 284 164.566406 284.113281 C 165.578125 284.601562 167.382812 284.921875 167.527344 286.304688 C 167.929688 286.429688 168.332031 286.566406 168.722656 286.707031 C 170.542969 287.355469 171.699219 288.761719 171.878906 290.6875 C 171.933594 291.261719 171.863281 291.734375 171.671875 292.117188 C 172.140625 292.445312 171.976562 293.332031 171.878906 293.875 C 171.730469 294.6875 171.542969 295.136719 170.75 295.410156 C 168.222656 296.28125 163.785156 295.941406 161.078125 295.507812 C 159.78125 295.386719 157.074219 295.042969 155.734375 294.605469 C 154.710938 294.273438 153.132812 294.003906 152.320312 293.265625 C 151.976562 292.957031 151.640625 292.476562 151.339844 291.984375 C 150.90625 291.746094 150.453125 291.539062 149.933594 291.4375 C 148.9375 291.246094 146.675781 291.265625 146.191406 290.242188 C 145.957031 289.746094 145.660156 287.636719 146.464844 287.410156 C 145.324219 283.636719 147.609375 282.605469 148.226562 280.550781 C 148 279.777344 147.875 279.289062 148.203125 278.382812 C 148.359375 277.945312 148.394531 277.679688 148.890625 277.589844 C 149.078125 277.558594 149.449219 277.582031 149.71875 277.667969 C 150 276.546875 150.207031 275.652344 150.234375 275.332031 C 150.328125 274.199219 150.894531 268.71875 150.609375 264.75 C 150.328125 260.785156 151.082031 253.511719 150.800781 251.621094 C 150.515625 249.730469 149.570312 245.574219 152.027344 241.039062 C 154.484375 236.507812 159.773438 230.175781 160.433594 228.664062 C 161.097656 227.152344 161.757812 226.585938 161.851562 224.601562 C 161.949219 222.621094 162.324219 219.597656 161.664062 215.628906 C 161.003906 211.660156 161.570312 205.519531 161.664062 203.820312 C 161.742188 202.386719 161.152344 196.269531 161.867188 193.582031 C 160.679688 193.082031 161.058594 191.269531 161.570312 190.121094 C 161.570312 190.121094 161.191406 188.234375 161.003906 185.304688 C 160.8125 182.375 161.851562 180.488281 161.757812 179.070312 C 161.664062 177.652344 161.851562 172.835938 161.757812 171.039062 C 161.664062 169.246094 162.042969 168.773438 162.703125 167.828125 C 162.957031 167.464844 163.269531 166.972656 163.75 166.6875 C 164.054688 165.886719 164.308594 165.1875 164.308594 164.710938 C 164.308594 163.199219 163.363281 160.835938 163.457031 158.191406 C 163.554688 155.546875 164.308594 154.507812 163.648438 152.335938 C 162.984375 150.164062 161.476562 146.382812 160.339844 143.078125 C 159.421875 140.398438 159.0625 136.847656 159.3125 133.386719 C 157.109375 136.820312 154.734375 137.238281 151.082031 139.960938 C 150.199219 140.617188 149.6875 140.800781 149.417969 140.628906 C 148.316406 141.585938 146.867188 142.117188 145.433594 141.839844 C 142.636719 141.296875 140.546875 139.074219 139.792969 136.371094 C 139.078125 133.796875 138.234375 131.269531 137.628906 128.675781 C 136.300781 122.976562 137.207031 117.765625 136.050781 112.921875 C 135.902344 112.300781 136.117188 112.6875 134.695312 110.195312 C 133.882812 108.773438 134.609375 107.230469 134.578125 105.660156 C 133.613281 104.246094 132.523438 103.050781 131.765625 101.503906 C 130.382812 105.03125 128.558594 108.410156 126.308594 111.316406 C 122.894531 115.714844 118.007812 119.605469 112.476562 119.738281 C 111.269531 119.769531 110.507812 119.617188 109.136719 119.425781 C 107.273438 119.164062 106.808594 119.113281 106.140625 118.953125 C 98.742188 117.199219 95.214844 108.695312 94.355469 101.03125 C 93.636719 97.210938 93.660156 93.226562 94.195312 89.421875 C 92.410156 89.039062 79.261719 86.199219 77.570312 85.832031 C 75.207031 85.324219 76.378906 78.976562 78.804688 78.65625 " fill-opacity="1" fill-rule="nonzero"/></g><g fill="#ffffff" fill-opacity="1"><g transform="translate(233.454214, 279.606454)"><g><path d="M 7.667969 -133.386719 C 6.003906 -133.386719 5.003906 -132.386719 5.003906 -130.71875 L 5.003906 -114.046875 C 5.003906 -112.378906 6.003906 -111.378906 7.667969 -111.378906 L 27.011719 -111.378906 L 27.011719 -2.667969 C 27.011719 -0.832031 28.011719 0 29.679688 0 L 47.019531 0 C 48.851562 0 49.6875 -0.832031 49.6875 -2.667969 L 49.6875 -111.378906 L 69.027344 -111.378906 C 70.863281 -111.378906 71.695312 -112.378906 71.695312 -114.046875 L 71.695312 -130.71875 C 71.695312 -132.386719 70.863281 -133.386719 69.027344 -133.386719 Z M 7.667969 -133.386719 "/></g></g></g></svg>