<svg xmlns="http://www.w3.org/2000/svg" width="500" zoomAndPan="magnify" viewBox="0 0 375 374.999991" height="500"
     preserveAspectRatio="xMidYMid meet" version="1.0"><defs><g/></defs><g fill="#000000" fill-opacity="1"><g transform="translate(45.21267, 199.751371)"><g><path d="M 5.136719 -1.644531 C 5.136719 -0.617188 5.75 0 6.777344 0 L 17.460938 0 C 18.589844 0 19.101562 -0.617188 19.101562 -1.644531 L 19.101562 -27.523438 L 31.425781 -27.523438 C 41.082031 -27.523438 46.214844 -32.761719 46.214844 -42.3125 L 46.214844 -67.375 C 46.214844 -77.027344 41.082031 -82.164062 31.425781 -82.164062 L 6.777344 -82.164062 C 5.75 -82.164062 5.136719 -81.546875 5.136719 -80.519531 Z M 19.101562 -41.082031 L 19.101562 -68.605469 L 28.140625 -68.605469 C 30.914062 -68.605469 32.25 -67.167969 32.25 -64.496094 L 32.25 -45.191406 C 32.25 -42.621094 30.914062 -41.082031 28.140625 -41.082031 Z M 19.101562 -41.082031 "/></g></g></g><g fill="#000000" fill-opacity="1"><g transform="translate(96.552889, 199.751371)"><g><path d="M 5.136719 -14.789062 C 5.136719 -5.136719 10.269531 0 19.925781 0 L 31.425781 0 C 41.082031 0 46.214844 -5.136719 46.214844 -14.789062 L 46.214844 -67.375 C 46.214844 -77.027344 41.082031 -82.164062 31.425781 -82.164062 L 19.925781 -82.164062 C 10.269531 -82.164062 5.136719 -77.027344 5.136719 -67.375 Z M 22.902344 -13.25 C 20.234375 -13.25 18.792969 -14.582031 18.792969 -17.355469 L 18.792969 -64.804688 C 18.792969 -67.476562 20.234375 -68.914062 22.902344 -68.914062 L 28.859375 -68.914062 C 31.53125 -68.914062 32.96875 -67.476562 32.96875 -64.804688 L 32.96875 -17.355469 C 32.96875 -14.582031 31.53125 -13.25 28.859375 -13.25 Z M 22.902344 -13.25 "/></g></g></g><g fill="#000000" fill-opacity="1"><g transform="translate(147.893108, 199.751371)"><g><path d="M 61.3125 -82.164062 C 60.082031 -82.164062 59.261719 -81.445312 59.15625 -80.210938 L 54.945312 -32.144531 L 54.433594 -32.144531 L 44.367188 -80.3125 C 44.058594 -81.546875 43.339844 -82.164062 42.109375 -82.164062 L 35.945312 -82.164062 C 34.714844 -82.164062 33.996094 -81.546875 33.6875 -80.3125 L 23.519531 -32.144531 L 23.003906 -32.144531 L 19 -80.210938 C 18.898438 -81.445312 18.074219 -82.164062 16.84375 -82.164062 L 7.085938 -82.164062 C 5.75 -82.164062 5.03125 -81.339844 5.136719 -80.007812 L 13.558594 -1.953125 C 13.660156 -0.617188 14.378906 0 15.714844 0 L 25.984375 0 C 27.214844 0 27.933594 -0.617188 28.242188 -1.746094 L 39.027344 -48.269531 L 49.707031 -1.847656 C 50.015625 -0.617188 50.734375 0 51.96875 0 L 62.03125 0 C 63.367188 0 64.085938 -0.617188 64.191406 -1.953125 L 73.023438 -80.007812 C 73.125 -81.339844 72.40625 -82.164062 71.070312 -82.164062 Z M 61.3125 -82.164062 "/></g></g></g><g fill="#000000" fill-opacity="1"><g transform="translate(226.032939, 199.751371)"><g><path d="M 46.113281 -80.519531 C 46.113281 -81.546875 45.703125 -82.164062 44.46875 -82.164062 L 6.675781 -82.164062 C 5.75 -82.164062 5.136719 -81.546875 5.136719 -80.519531 L 5.136719 -1.644531 C 5.136719 -0.617188 5.75 0 6.675781 0 L 44.46875 0 C 45.703125 0 46.113281 -0.617188 46.113281 -1.644531 L 46.113281 -11.914062 C 46.113281 -13.042969 45.703125 -13.558594 44.46875 -13.558594 L 18.792969 -13.558594 L 18.792969 -34.304688 L 38.410156 -34.304688 C 39.4375 -34.304688 40.054688 -34.917969 40.054688 -36.050781 L 40.054688 -46.214844 C 40.054688 -47.347656 39.4375 -47.960938 38.410156 -47.960938 L 18.792969 -47.960938 L 18.792969 -68.503906 L 44.46875 -68.503906 C 45.703125 -68.503906 46.113281 -69.222656 46.113281 -70.25 Z M 46.113281 -80.519531 "/></g></g></g><g fill="#000000" fill-opacity="1"><g transform="translate(277.27049, 199.751371)"><g><path d="M 47.347656 -67.375 C 47.347656 -77.027344 42.210938 -82.164062 32.558594 -82.164062 L 6.777344 -82.164062 C 5.75 -82.164062 5.136719 -81.546875 5.136719 -80.519531 L 5.136719 -1.644531 C 5.136719 -0.617188 5.75 0 6.777344 0 L 17.460938 0 C 18.488281 0 19.101562 -0.617188 19.101562 -1.644531 L 19.101562 -27.523438 L 26.1875 -27.523438 L 33.070312 -1.4375 C 33.277344 -0.511719 33.789062 0 34.816406 0 L 45.496094 0 C 46.628906 0 47.242188 -0.617188 46.933594 -1.847656 L 39.847656 -28.757812 C 44.777344 -30.914062 47.347656 -35.433594 47.347656 -42.3125 Z M 19.101562 -41.082031 L 19.101562 -68.605469 L 29.269531 -68.605469 C 31.941406 -68.605469 33.378906 -67.167969 33.378906 -64.496094 L 33.378906 -45.191406 C 33.378906 -42.519531 31.941406 -41.082031 29.269531 -41.082031 Z M 19.101562 -41.082031 "/></g></g></g><g fill="#000000" fill-opacity="1"><g transform="translate(110.415471, 265.621631)"><g><path d="M 2.128906 -37.039062 C 1.667969 -37.039062 1.390625 -36.761719 1.390625 -36.300781 L 1.390625 -31.667969 C 1.390625 -31.207031 1.667969 -30.929688 2.128906 -30.929688 L 7.5 -30.929688 L 7.5 -0.742188 C 7.5 -0.230469 7.777344 0 8.242188 0 L 13.054688 0 C 13.566406 0 13.796875 -0.230469 13.796875 -0.742188 L 13.796875 -30.929688 L 19.167969 -30.929688 C 19.675781 -30.929688 19.910156 -31.207031 19.910156 -31.667969 L 19.910156 -36.300781 C 19.910156 -36.761719 19.675781 -37.039062 19.167969 -37.039062 Z M 2.128906 -37.039062 "/></g></g></g><g fill="#000000" fill-opacity="1"><g transform="translate(131.70978, 265.621631)"><g><path d="M 21.34375 -30.371094 C 21.34375 -34.726562 19.027344 -37.039062 14.675781 -37.039062 L 3.054688 -37.039062 C 2.59375 -37.039062 2.316406 -36.761719 2.316406 -36.300781 L 2.316406 -0.742188 C 2.316406 -0.277344 2.59375 0 3.054688 0 L 7.871094 0 C 8.332031 0 8.613281 -0.277344 8.613281 -0.742188 L 8.613281 -12.410156 L 11.804688 -12.410156 L 14.910156 -0.648438 C 15 -0.230469 15.234375 0 15.695312 0 L 20.511719 0 C 21.019531 0 21.296875 -0.277344 21.160156 -0.832031 L 17.964844 -12.964844 C 20.1875 -13.9375 21.34375 -15.972656 21.34375 -19.074219 Z M 8.613281 -18.519531 L 8.613281 -30.929688 L 13.195312 -30.929688 C 14.398438 -30.929688 15.046875 -30.28125 15.046875 -29.074219 L 15.046875 -20.371094 C 15.046875 -19.167969 14.398438 -18.519531 13.195312 -18.519531 Z M 8.613281 -18.519531 "/></g></g></g><g fill="#000000" fill-opacity="1"><g transform="translate(155.36497, 265.621631)"><g><path d="M 24.632812 0 C 25.1875 0 25.371094 -0.277344 25.28125 -0.785156 L 17.59375 -36.390625 C 17.5 -36.855469 17.222656 -37.039062 16.808594 -37.039062 L 10.371094 -37.039062 C 9.953125 -37.039062 9.675781 -36.855469 9.585938 -36.390625 L 1.898438 -0.785156 C 1.757812 -0.277344 1.992188 0 2.5 0 L 7.453125 0 C 7.871094 0 8.101562 -0.230469 8.195312 -0.648438 L 9.445312 -7.40625 L 17.6875 -7.40625 L 18.984375 -0.648438 C 19.074219 -0.230469 19.308594 0 19.722656 0 Z M 16.527344 -12.777344 L 10.601562 -12.777344 L 13.566406 -28.9375 Z M 16.527344 -12.777344 "/></g></g></g><g fill="#000000" fill-opacity="1"><g transform="translate(182.492076, 265.621631)"><g><path d="M 3.054688 -37.039062 C 2.546875 -37.039062 2.316406 -36.761719 2.316406 -36.300781 L 2.316406 -0.742188 C 2.316406 -0.277344 2.546875 0 3.054688 0 L 7.871094 0 C 8.332031 0 8.613281 -0.277344 8.613281 -0.742188 L 8.613281 -36.300781 C 8.613281 -36.761719 8.332031 -37.039062 7.871094 -37.039062 Z M 3.054688 -37.039062 "/></g></g></g><g fill="#000000" fill-opacity="1"><g transform="translate(193.416984, 265.621631)"><g><path d="M 16.527344 -37.039062 C 16.019531 -37.039062 15.789062 -36.761719 15.789062 -36.300781 L 15.789062 -16.761719 L 15.511719 -16.761719 L 8.472656 -36.4375 C 8.332031 -36.855469 8.054688 -37.039062 7.640625 -37.039062 L 3.054688 -37.039062 C 2.59375 -37.039062 2.316406 -36.761719 2.316406 -36.300781 L 2.316406 -0.742188 C 2.316406 -0.277344 2.59375 0 3.054688 0 L 7.871094 0 C 8.378906 0 8.613281 -0.277344 8.613281 -0.742188 L 8.613281 -20.371094 L 8.84375 -20.371094 L 15.925781 -0.601562 C 16.066406 -0.183594 16.34375 0 16.761719 0 L 21.34375 0 C 21.808594 0 22.085938 -0.277344 22.085938 -0.742188 L 22.085938 -36.300781 C 22.085938 -36.761719 21.808594 -37.039062 21.34375 -37.039062 Z M 16.527344 -37.039062 "/></g></g></g><g fill="#000000" fill-opacity="1"><g transform="translate(217.812856, 265.621631)"><g><path d="M 20.789062 -36.300781 C 20.789062 -36.761719 20.601562 -37.039062 20.046875 -37.039062 L 3.007812 -37.039062 C 2.59375 -37.039062 2.316406 -36.761719 2.316406 -36.300781 L 2.316406 -0.742188 C 2.316406 -0.277344 2.59375 0 3.007812 0 L 20.046875 0 C 20.601562 0 20.789062 -0.277344 20.789062 -0.742188 L 20.789062 -5.371094 C 20.789062 -5.878906 20.601562 -6.113281 20.046875 -6.113281 L 8.472656 -6.113281 L 8.472656 -15.464844 L 17.316406 -15.464844 C 17.777344 -15.464844 18.058594 -15.742188 18.058594 -16.25 L 18.058594 -20.835938 C 18.058594 -21.34375 17.777344 -21.621094 17.316406 -21.621094 L 8.472656 -21.621094 L 8.472656 -30.882812 L 20.046875 -30.882812 C 20.601562 -30.882812 20.789062 -31.207031 20.789062 -31.667969 Z M 20.789062 -36.300781 "/></g></g></g><g fill="#000000" fill-opacity="1"><g transform="translate(240.912539, 265.621631)"><g><path d="M 21.34375 -30.371094 C 21.34375 -34.726562 19.027344 -37.039062 14.675781 -37.039062 L 3.054688 -37.039062 C 2.59375 -37.039062 2.316406 -36.761719 2.316406 -36.300781 L 2.316406 -0.742188 C 2.316406 -0.277344 2.59375 0 3.054688 0 L 7.871094 0 C 8.332031 0 8.613281 -0.277344 8.613281 -0.742188 L 8.613281 -12.410156 L 11.804688 -12.410156 L 14.910156 -0.648438 C 15 -0.230469 15.234375 0 15.695312 0 L 20.511719 0 C 21.019531 0 21.296875 -0.277344 21.160156 -0.832031 L 17.964844 -12.964844 C 20.1875 -13.9375 21.34375 -15.972656 21.34375 -19.074219 Z M 8.613281 -18.519531 L 8.613281 -30.929688 L 13.195312 -30.929688 C 14.398438 -30.929688 15.046875 -30.28125 15.046875 -29.074219 L 15.046875 -20.371094 C 15.046875 -19.167969 14.398438 -18.519531 13.195312 -18.519531 Z M 8.613281 -18.519531 "/></g></g></g><path stroke-linecap="butt" transform="matrix(0.75, 0, 0, 0.75, 49.144348, 207.729435)" fill="none" stroke-linejoin="miter" d="M 0.00024477 5.001378 L 369.963811 5.001378 " stroke="#f13232" stroke-width="10" stroke-opacity="1" stroke-miterlimit="4"/></svg>