<svg xmlns="http://www.w3.org/2000/svg" width="500" zoomAndPan="magnify" viewBox="0 0 375 374.999991" height="500"
     preserveAspectRatio="xMidYMid meet" version="1.0"><defs><g/></defs><g fill="#ffffff" fill-opacity="1"><g transform="translate(32.057952, 200.884041)"><g><path d="M 5.609375 -1.796875 C 5.609375 -0.671875 6.28125 0 7.40625 0 L 19.074219 0 C 20.308594 0 20.867188 -0.671875 20.867188 -1.796875 L 20.867188 -30.070312 L 34.332031 -30.070312 C 44.878906 -30.070312 50.488281 -35.792969 50.488281 -46.226562 L 50.488281 -73.601562 C 50.488281 -84.148438 44.878906 -89.757812 34.332031 -89.757812 L 7.40625 -89.757812 C 6.28125 -89.757812 5.609375 -89.085938 5.609375 -87.964844 Z M 20.867188 -44.878906 L 20.867188 -74.949219 L 30.742188 -74.949219 C 33.773438 -74.949219 35.230469 -73.378906 35.230469 -70.460938 L 35.230469 -49.367188 C 35.230469 -46.5625 33.773438 -44.878906 30.742188 -44.878906 Z M 20.867188 -44.878906 "/></g></g></g><g fill="#ffffff" fill-opacity="1"><g transform="translate(88.14467, 200.884041)"><g><path d="M 5.609375 -16.15625 C 5.609375 -5.609375 11.21875 0 21.765625 0 L 34.332031 0 C 44.878906 0 50.488281 -5.609375 50.488281 -16.15625 L 50.488281 -73.601562 C 50.488281 -84.148438 44.878906 -89.757812 34.332031 -89.757812 L 21.765625 -89.757812 C 11.21875 -89.757812 5.609375 -84.148438 5.609375 -73.601562 Z M 25.019531 -14.472656 C 22.101562 -14.472656 20.53125 -15.933594 20.53125 -18.960938 L 20.53125 -70.796875 C 20.53125 -73.714844 22.101562 -75.285156 25.019531 -75.285156 L 31.527344 -75.285156 C 34.445312 -75.285156 36.015625 -73.714844 36.015625 -70.796875 L 36.015625 -18.960938 C 36.015625 -15.933594 34.445312 -14.472656 31.527344 -14.472656 Z M 25.019531 -14.472656 "/></g></g></g><g fill="#ffffff" fill-opacity="1"><g transform="translate(144.231387, 200.884041)"><g><path d="M 66.984375 -89.757812 C 65.636719 -89.757812 64.738281 -88.972656 64.625 -87.628906 L 60.027344 -35.117188 L 59.464844 -35.117188 L 48.46875 -87.738281 C 48.132812 -89.085938 47.347656 -89.757812 46 -89.757812 L 39.269531 -89.757812 C 37.921875 -89.757812 37.136719 -89.085938 36.800781 -87.738281 L 25.695312 -35.117188 L 25.132812 -35.117188 L 20.757812 -87.628906 C 20.644531 -88.972656 19.746094 -89.757812 18.402344 -89.757812 L 7.742188 -89.757812 C 6.28125 -89.757812 5.496094 -88.859375 5.609375 -87.402344 L 14.808594 -2.132812 C 14.921875 -0.671875 15.707031 0 17.167969 0 L 28.386719 0 C 29.734375 0 30.519531 -0.671875 30.855469 -1.90625 L 42.636719 -52.734375 L 54.304688 -2.019531 C 54.640625 -0.671875 55.425781 0 56.773438 0 L 67.769531 0 C 69.226562 0 70.011719 -0.671875 70.125 -2.132812 L 79.773438 -87.402344 C 79.886719 -88.859375 79.101562 -89.757812 77.640625 -89.757812 Z M 66.984375 -89.757812 "/></g></g></g><g fill="#ffffff" fill-opacity="1"><g transform="translate(229.59539, 200.884041)"><g><path d="M 50.378906 -87.964844 C 50.378906 -89.085938 49.929688 -89.757812 48.582031 -89.757812 L 7.292969 -89.757812 C 6.28125 -89.757812 5.609375 -89.085938 5.609375 -87.964844 L 5.609375 -1.796875 C 5.609375 -0.671875 6.28125 0 7.292969 0 L 48.582031 0 C 49.929688 0 50.378906 -0.671875 50.378906 -1.796875 L 50.378906 -13.015625 C 50.378906 -14.25 49.929688 -14.808594 48.582031 -14.808594 L 20.53125 -14.808594 L 20.53125 -37.472656 L 41.960938 -37.472656 C 43.085938 -37.472656 43.757812 -38.148438 43.757812 -39.382812 L 43.757812 -50.488281 C 43.757812 -51.722656 43.085938 -52.398438 41.960938 -52.398438 L 20.53125 -52.398438 L 20.53125 -74.835938 L 48.582031 -74.835938 C 49.929688 -74.835938 50.378906 -75.621094 50.378906 -76.742188 Z M 50.378906 -87.964844 "/></g></g></g><g fill="#ffffff" fill-opacity="1"><g transform="translate(285.569947, 200.884041)"><g><path d="M 51.722656 -73.601562 C 51.722656 -84.148438 46.113281 -89.757812 35.566406 -89.757812 L 7.40625 -89.757812 C 6.28125 -89.757812 5.609375 -89.085938 5.609375 -87.964844 L 5.609375 -1.796875 C 5.609375 -0.671875 6.28125 0 7.40625 0 L 19.074219 0 C 20.195312 0 20.867188 -0.671875 20.867188 -1.796875 L 20.867188 -30.070312 L 28.609375 -30.070312 L 36.128906 -1.570312 C 36.351562 -0.5625 36.914062 0 38.035156 0 L 49.703125 0 C 50.9375 0 51.609375 -0.671875 51.273438 -2.019531 L 43.53125 -31.414062 C 48.917969 -33.773438 51.722656 -38.707031 51.722656 -46.226562 Z M 20.867188 -44.878906 L 20.867188 -74.949219 L 31.976562 -74.949219 C 34.894531 -74.949219 36.464844 -73.378906 36.464844 -70.460938 L 36.464844 -49.367188 C 36.464844 -46.449219 34.894531 -44.878906 31.976562 -44.878906 Z M 20.867188 -44.878906 "/></g></g></g><g fill="#ffffff" fill-opacity="1"><g transform="translate(103.288873, 272.844165)"><g><path d="M 2.328125 -40.464844 C 1.820312 -40.464844 1.515625 -40.160156 1.515625 -39.65625 L 1.515625 -34.597656 C 1.515625 -34.089844 1.820312 -33.789062 2.328125 -33.789062 L 8.195312 -33.789062 L 8.195312 -0.808594 C 8.195312 -0.253906 8.496094 0 9.003906 0 L 14.261719 0 C 14.820312 0 15.074219 -0.253906 15.074219 -0.808594 L 15.074219 -33.789062 L 20.941406 -33.789062 C 21.496094 -33.789062 21.75 -34.089844 21.75 -34.597656 L 21.75 -39.65625 C 21.75 -40.160156 21.496094 -40.464844 20.941406 -40.464844 Z M 2.328125 -40.464844 "/></g></g></g><g fill="#ffffff" fill-opacity="1"><g transform="translate(126.551881, 272.844165)"><g><path d="M 23.316406 -33.179688 C 23.316406 -37.933594 20.789062 -40.464844 16.035156 -40.464844 L 3.339844 -40.464844 C 2.832031 -40.464844 2.527344 -40.160156 2.527344 -39.65625 L 2.527344 -0.808594 C 2.527344 -0.304688 2.832031 0 3.339844 0 L 8.597656 0 C 9.105469 0 9.40625 -0.304688 9.40625 -0.808594 L 9.40625 -13.554688 L 12.898438 -13.554688 L 16.285156 -0.707031 C 16.386719 -0.253906 16.640625 0 17.148438 0 L 22.40625 0 C 22.964844 0 23.265625 -0.304688 23.113281 -0.910156 L 19.625 -14.164062 C 22.054688 -15.222656 23.316406 -17.449219 23.316406 -20.839844 Z M 9.40625 -20.230469 L 9.40625 -33.789062 L 14.414062 -33.789062 C 15.730469 -33.789062 16.4375 -33.078125 16.4375 -31.765625 L 16.4375 -22.253906 C 16.4375 -20.941406 15.730469 -20.230469 14.414062 -20.230469 Z M 9.40625 -20.230469 "/></g></g></g><g fill="#ffffff" fill-opacity="1"><g transform="translate(152.394037, 272.844165)"><g><path d="M 26.910156 0 C 27.515625 0 27.71875 -0.304688 27.617188 -0.859375 L 19.21875 -39.757812 C 19.121094 -40.261719 18.816406 -40.464844 18.359375 -40.464844 L 11.328125 -40.464844 C 10.875 -40.464844 10.570312 -40.261719 10.46875 -39.757812 L 2.074219 -0.859375 C 1.921875 -0.304688 2.175781 0 2.730469 0 L 8.144531 0 C 8.597656 0 8.851562 -0.253906 8.953125 -0.707031 L 10.316406 -8.09375 L 19.320312 -8.09375 L 20.738281 -0.707031 C 20.839844 -0.253906 21.09375 0 21.546875 0 Z M 18.058594 -13.960938 L 11.582031 -13.960938 L 14.820312 -31.613281 Z M 18.058594 -13.960938 "/></g></g></g><g fill="#ffffff" fill-opacity="1"><g transform="translate(182.029094, 272.844165)"><g><path d="M 3.339844 -40.464844 C 2.78125 -40.464844 2.527344 -40.160156 2.527344 -39.65625 L 2.527344 -0.808594 C 2.527344 -0.304688 2.78125 0 3.339844 0 L 8.597656 0 C 9.105469 0 9.40625 -0.304688 9.40625 -0.808594 L 9.40625 -39.65625 C 9.40625 -40.160156 9.105469 -40.464844 8.597656 -40.464844 Z M 3.339844 -40.464844 "/></g></g></g><g fill="#ffffff" fill-opacity="1"><g transform="translate(193.96403, 272.844165)"><g><path d="M 18.058594 -40.464844 C 17.5 -40.464844 17.246094 -40.160156 17.246094 -39.65625 L 17.246094 -18.308594 L 16.945312 -18.308594 L 9.257812 -39.804688 C 9.105469 -40.261719 8.800781 -40.464844 8.347656 -40.464844 L 3.339844 -40.464844 C 2.832031 -40.464844 2.527344 -40.160156 2.527344 -39.65625 L 2.527344 -0.808594 C 2.527344 -0.304688 2.832031 0 3.339844 0 L 8.597656 0 C 9.15625 0 9.40625 -0.304688 9.40625 -0.808594 L 9.40625 -22.253906 L 9.660156 -22.253906 L 17.398438 -0.65625 C 17.550781 -0.203125 17.855469 0 18.308594 0 L 23.316406 0 C 23.824219 0 24.125 -0.304688 24.125 -0.808594 L 24.125 -39.65625 C 24.125 -40.160156 23.824219 -40.464844 23.316406 -40.464844 Z M 18.058594 -40.464844 "/></g></g></g><g fill="#ffffff" fill-opacity="1"><g transform="translate(220.615346, 272.844165)"><g><path d="M 22.710938 -39.65625 C 22.710938 -40.160156 22.507812 -40.464844 21.902344 -40.464844 L 3.289062 -40.464844 C 2.832031 -40.464844 2.527344 -40.160156 2.527344 -39.65625 L 2.527344 -0.808594 C 2.527344 -0.304688 2.832031 0 3.289062 0 L 21.902344 0 C 22.507812 0 22.710938 -0.304688 22.710938 -0.808594 L 22.710938 -5.867188 C 22.710938 -6.421875 22.507812 -6.675781 21.902344 -6.675781 L 9.257812 -6.675781 L 9.257812 -16.894531 L 18.917969 -16.894531 C 19.421875 -16.894531 19.726562 -17.195312 19.726562 -17.753906 L 19.726562 -22.761719 C 19.726562 -23.316406 19.421875 -23.621094 18.917969 -23.621094 L 9.257812 -23.621094 L 9.257812 -33.738281 L 21.902344 -33.738281 C 22.507812 -33.738281 22.710938 -34.089844 22.710938 -34.597656 Z M 22.710938 -39.65625 "/></g></g></g><g fill="#ffffff" fill-opacity="1"><g transform="translate(245.850637, 272.844165)"><g><path d="M 23.316406 -33.179688 C 23.316406 -37.933594 20.789062 -40.464844 16.035156 -40.464844 L 3.339844 -40.464844 C 2.832031 -40.464844 2.527344 -40.160156 2.527344 -39.65625 L 2.527344 -0.808594 C 2.527344 -0.304688 2.832031 0 3.339844 0 L 8.597656 0 C 9.105469 0 9.40625 -0.304688 9.40625 -0.808594 L 9.40625 -13.554688 L 12.898438 -13.554688 L 16.285156 -0.707031 C 16.386719 -0.253906 16.640625 0 17.148438 0 L 22.40625 0 C 22.964844 0 23.265625 -0.304688 23.113281 -0.910156 L 19.625 -14.164062 C 22.054688 -15.222656 23.316406 -17.449219 23.316406 -20.839844 Z M 9.40625 -20.230469 L 9.40625 -33.789062 L 14.414062 -33.789062 C 15.730469 -33.789062 16.4375 -33.078125 16.4375 -31.765625 L 16.4375 -22.253906 C 16.4375 -20.941406 15.730469 -20.230469 14.414062 -20.230469 Z M 9.40625 -20.230469 "/></g></g></g><path stroke-linecap="butt" transform="matrix(0.75, 0, 0, 0.75, 36.353121, 209.196315)" fill="none" stroke-linejoin="miter" d="M -0.0020781 5.998664 L 404.169823 5.998664 " stroke="#f13232" stroke-width="12" stroke-opacity="1" stroke-miterlimit="4"/></svg>